<svg width="238" height="228" viewBox="0 0 238 228" fill="none" xmlns="http://www.w3.org/2000/svg">
<g filter="url(#filter0_d_14_471)">
<path d="M217.5 110C217.5 161.615 173.425 203.5 119 203.5C64.5752 203.5 20.5 161.615 20.5 110C20.5 58.3855 64.5752 16.5 119 16.5C173.425 16.5 217.5 58.3855 217.5 110Z" fill="#F8E9FF" stroke="#9190C5"/>
<g filter="url(#filter1_i_14_471)">
<path d="M44.6178 137L29.9019 83.1818H36.5241L47.7712 127.014H48.2968L59.7542 83.1818H67.1121L78.5695 127.014H79.0951L90.3422 83.1818H96.9644L82.2485 137H75.5212L63.6434 94.1136H63.2229L51.3451 137H44.6178ZM105.084 137V83.1818H111.601V109.881H112.232L136.408 83.1818H144.922L122.323 107.463L144.922 137H137.039L118.329 111.983L111.601 119.551V137H105.084ZM153.358 83.1818H161.136L179.426 127.855H180.057L198.347 83.1818H206.125V137H200.028V96.1108H199.503L182.685 137H176.798L159.98 96.1108H159.454V137H153.358V83.1818Z" fill="#9190C5"/>
</g>
</g>
<defs>
<filter id="filter0_d_14_471" x="0" y="0" width="238" height="228" filterUnits="userSpaceOnUse" color-interpolation-filters="sRGB">
<feFlood flood-opacity="0" result="BackgroundImageFix"/>
<feColorMatrix in="SourceAlpha" type="matrix" values="0 0 0 0 0 0 0 0 0 0 0 0 0 0 0 0 0 0 127 0" result="hardAlpha"/>
<feOffset dy="4"/>
<feGaussianBlur stdDeviation="10"/>
<feComposite in2="hardAlpha" operator="out"/>
<feColorMatrix type="matrix" values="0 0 0 0 0 0 0 0 0 0 0 0 0 0 0 0 0 0 0.25 0"/>
<feBlend mode="normal" in2="BackgroundImageFix" result="effect1_dropShadow_14_471"/>
<feBlend mode="normal" in="SourceGraphic" in2="effect1_dropShadow_14_471" result="shape"/>
</filter>
<filter id="filter1_i_14_471" x="29.9019" y="83.1819" width="176.223" height="57.8181" filterUnits="userSpaceOnUse" color-interpolation-filters="sRGB">
<feFlood flood-opacity="0" result="BackgroundImageFix"/>
<feBlend mode="normal" in="SourceGraphic" in2="BackgroundImageFix" result="shape"/>
<feColorMatrix in="SourceAlpha" type="matrix" values="0 0 0 0 0 0 0 0 0 0 0 0 0 0 0 0 0 0 127 0" result="hardAlpha"/>
<feOffset dy="4"/>
<feGaussianBlur stdDeviation="2"/>
<feComposite in2="hardAlpha" operator="arithmetic" k2="-1" k3="1"/>
<feColorMatrix type="matrix" values="0 0 0 0 0 0 0 0 0 0 0 0 0 0 0 0 0 0 0.25 0"/>
<feBlend mode="normal" in2="shape" result="effect1_innerShadow_14_471"/>
</filter>
</defs>
</svg>
